HIERARCHY
ROOT joint_0
{
	OFFSET 0.000000 0.000000 0.000000
	CHANNELS 6 Xposition Yposition Zposition Zrotation Yrotation Xrotation 
	JOINT joint_1
	{
		OFFSET 13.542969 -4.074463 123.986084
		CHANNELS 3 Zrotation Yrotation Xrotation
		JOINT joint_2
		{
			OFFSET -0.108154 -3.018066 113.860962
			CHANNELS 3 Zrotation Yrotation Xrotation
			JOINT joint_3
			{
				OFFSET -1.139648 -3.876465 113.702026
				CHANNELS 3 Zrotation Yrotation Xrotation
				JOINT joint_4
				{
					OFFSET 13.593506 -8.582153 160.876953
					CHANNELS 3 Zrotation Yrotation Xrotation
					JOINT joint_5
					{
						OFFSET 26.480957 -11.565674 94.427979
						CHANNELS 3 Zrotation Yrotation Xrotation
						End Site
						{
							OFFSET 0.000000 0.000000 0.000000
						}
					}
				}
				JOINT joint_6
				{
					OFFSET 3.003662 -39.658691 88.713989
					CHANNELS 3 Zrotation Yrotation Xrotation
					JOINT joint_7
					{
						OFFSET -25.253906 -162.506348 -28.477051
						CHANNELS 3 Zrotation Yrotation Xrotation
						JOINT joint_8
						{
							OFFSET 23.083252 -8.502686 -295.281982
							CHANNELS 3 Zrotation Yrotation Xrotation
							JOINT joint_9
							{
								OFFSET 20.205566 -32.167908 -263.458008
								CHANNELS 3 Zrotation Yrotation Xrotation
								End Site
								{
									OFFSET 0.000000 0.000000 0.000000
								}
							}
						}
					}
				}
				JOINT joint_10
				{
					OFFSET 12.313232 30.012939 91.642944
					CHANNELS 3 Zrotation Yrotation Xrotation
					JOINT joint_11
					{
						OFFSET 31.960205 162.667969 -19.398926
						CHANNELS 3 Zrotation Yrotation Xrotation
						JOINT joint_12
						{
							OFFSET 51.325195 40.249023 -289.038086
							CHANNELS 3 Zrotation Yrotation Xrotation
							JOINT joint_13
							{
								OFFSET 70.170898 60.433594 -249.556030
								CHANNELS 3 Zrotation Yrotation Xrotation
								End Site
								{
									OFFSET 0.000000 0.000000 0.000000
								}
							}
						}
					}
				}
			}
		}
	}
	JOINT joint_14
	{
		OFFSET -15.093262 -91.803833 -113.326904
		CHANNELS 3 Zrotation Yrotation Xrotation
		JOINT joint_15
		{
			OFFSET 2.288818 -12.306763 -494.206055
			CHANNELS 3 Zrotation Yrotation Xrotation
			JOINT joint_16
			{
				OFFSET -54.691650 0.383423 -424.447006
				CHANNELS 3 Zrotation Yrotation Xrotation
				JOINT joint_17
				{
					OFFSET 202.154297 -21.791382 -80.181999
					CHANNELS 3 Zrotation Yrotation Xrotation
					End Site
					{
						OFFSET 0.000000 0.000000 0.000000
					}
				}
			}
		}
	}
	JOINT joint_18
	{
		OFFSET 10.704102 91.957275 -113.713013
		CHANNELS 3 Zrotation Yrotation Xrotation
		JOINT joint_19
		{
			OFFSET 0.427490 1.374878 -494.359924
			CHANNELS 3 Zrotation Yrotation Xrotation
			JOINT joint_20
			{
				OFFSET -53.071777 2.769531 -424.643028
				CHANNELS 3 Zrotation Yrotation Xrotation
				JOINT joint_21
				{
					OFFSET 200.264648 -28.253052 -82.862999
					CHANNELS 3 Zrotation Yrotation Xrotation
					End Site
					{
						OFFSET 0.000000 0.000000 0.000000
					}
				}
			}
		}
	}
}
MOTION
Frames: 16
Frame Time: 0.016667
-2840.697266 1291.708740 1143.988037 12.649231 1.546355 0.847039 1.512996 -2.273243 -2.113234 1.575761 0.176057 0.539595 1.540137 -0.658239 -0.326703 0.396501 -0.625590 -1.804906 0.000000 0.000000 0.000000 3.582546 -0.155659 1.327323 0.097348 1.154151 -2.980347 0.453398 -3.180381 0.296817 0.000000 0.000000 0.000000 -1.267660 0.293143 0.139322 -1.238852 0.753568 -1.977885 -2.166819 -2.351177 -4.938942 0.000000 0.000000 0.000000 -4.192142 2.410456 0.905869 -4.062153 -2.026961 -1.502847 -4.071546 1.499994 -1.446713 0.000000 0.000000 0.000000 -2.997480 -1.723781 5.584095 -2.913197 -1.444829 -1.640311 -2.996814 4.039991 -0.656464 0.000000 0.000000 0.000000 
-2834.359863 1294.303101 1145.261963 13.967352 1.544749 0.835829 1.239373 -2.312837 -1.796484 1.303200 0.252571 0.433501 1.265334 -0.676503 -0.254801 0.510679 -0.120419 -1.981733 0.000000 0.000000 0.000000 3.073917 -0.172024 0.937616 0.195723 1.050228 -3.499486 0.816918 -5.837895 2.017021 0.000000 0.000000 0.000000 -0.704003 0.728803 -0.134309 -1.351167 0.964061 -1.461626 -2.583669 -2.772158 -5.778818 0.000000 0.000000 0.000000 -4.432347 2.253011 0.699223 -4.341914 -0.708062 -1.297121 -4.315667 1.402031 -1.552884 0.000000 0.000000 0.000000 -3.328303 -1.499750 5.483659 -3.235626 -1.568327 -1.603462 -3.296546 4.205379 -0.756098 0.000000 0.000000 0.000000 
-2828.086670 1297.002441 1146.519043 15.034291 1.487515 0.810082 1.055243 -2.213542 -1.489789 1.116077 0.285155 0.333720 1.078791 -0.652491 -0.206874 0.604188 0.435518 -2.071633 0.000000 0.000000 0.000000 2.557262 -0.298632 0.690932 0.118638 0.909877 -4.177230 0.994660 -7.381282 3.738522 0.000000 0.000000 0.000000 -0.193597 1.052884 -0.425013 -1.397636 1.085640 -1.014822 -2.807813 -2.980411 -6.198288 0.000000 0.000000 0.000000 -4.611040 1.789404 0.366859 -4.589710 1.341980 -0.886762 -4.490761 1.085096 -1.654460 0.000000 0.000000 0.000000 -3.585448 -1.274246 5.406221 -3.486076 -1.481603 -1.590374 -3.533867 4.268996 -0.844708 0.000000 0.000000 0.000000 
-2821.934570 1299.778442 1147.842041 15.776155 1.407445 0.827652 1.035778 -1.926864 -1.342406 1.089631 0.234532 0.306730 1.057319 -0.569730 -0.203214 0.666737 1.013706 -2.053241 0.000000 0.000000 0.000000 1.990099 -0.574225 0.603907 -0.133317 0.708187 -5.169332 0.996478 -7.002372 5.649414 0.000000 0.000000 0.000000 0.251050 1.177770 -0.764612 -1.345784 1.034330 -0.680279 -2.764208 -2.928934 -6.042383 0.000000 0.000000 0.000000 -4.699262 0.946536 -0.217839 -4.775530 4.206601 -0.154705 -4.533114 0.605731 -1.719181 0.000000 0.000000 0.000000 -3.743294 -1.103151 5.290802 -3.640529 -1.151039 -1.614472 -3.689318 4.262209 -0.909696 0.000000 0.000000 0.000000 
-2815.846680 1302.660400 1149.146973 16.266830 1.258391 0.891351 1.103415 -1.467065 -1.326022 1.148779 0.126107 0.347632 1.124803 -0.443067 -0.220195 0.702455 1.634191 -1.938454 0.000000 0.000000 0.000000 1.415494 -0.946371 0.608984 -0.512628 0.455030 -6.261379 0.857269 -5.489057 7.569331 0.000000 0.000000 0.000000 0.652992 1.190246 -1.122593 -1.210887 0.895346 -0.441576 -2.519571 -2.710872 -5.455053 0.000000 0.000000 0.000000 -4.729211 -0.181202 -1.012903 -4.913298 7.752803 0.773938 -4.445224 0.138107 -1.728312 0.000000 0.000000 0.000000 -3.826995 -0.920266 5.106830 -3.724004 -0.617063 -1.632885 -3.780309 4.188180 -0.957494 0.000000 0.000000 0.000000 
-2809.484619 1305.130493 1149.926025 16.518551 1.123427 0.985734 1.211580 -1.066921 -1.402811 1.253983 0.038746 0.387155 1.236742 -0.337859 -0.250341 0.696812 2.203320 -1.706133 0.000000 0.000000 0.000000 1.124901 -1.062611 0.683805 -0.802444 0.438870 -6.896767 0.702314 -4.303758 8.770478 0.000000 0.000000 0.000000 0.926374 1.219822 -1.315880 -1.031082 0.829549 -0.218313 -2.203733 -2.386754 -4.771402 0.000000 0.000000 0.000000 -4.792987 -1.638759 -1.747560 -5.076906 11.767473 1.449622 -4.344033 -0.300791 -1.726154 0.000000 0.000000 0.000000 -3.878783 -0.774233 4.955240 -3.777721 0.064449 -1.702833 -3.849423 3.976240 -1.014974 0.000000 0.000000 0.000000 
-2802.736084 1306.906128 1149.932983 16.430038 1.055911 1.143199 1.382912 -0.845881 -1.642228 1.435844 0.017502 0.419910 1.420666 -0.292913 -0.309391 0.640840 2.727006 -1.305294 0.000000 0.000000 0.000000 1.361097 -0.643554 0.818457 -0.795704 0.892440 -6.673799 0.664616 -4.122078 8.797654 0.000000 0.000000 0.000000 1.000332 1.310424 -1.216891 -0.818571 0.915193 -0.002534 -1.847255 -1.944086 -4.085275 0.000000 0.000000 0.000000 -4.995307 -3.755685 -2.335826 -5.361709 16.776670 1.484489 -4.377645 -0.621585 -1.757660 0.000000 0.000000 0.000000 -3.903887 -0.652220 4.869273 -3.807634 0.775675 -1.892284 -3.907355 3.638069 -1.084174 0.000000 0.000000 0.000000 
-2795.713379 1308.269897 1149.412964 16.122806 0.983782 1.414013 1.584942 -0.637190 -2.145447 1.658688 -0.009842 0.539806 1.644854 -0.269374 -0.386112 0.553681 3.201989 -0.810505 0.000000 0.000000 0.000000 1.884870 0.029490 1.044223 -0.628862 1.573201 -5.981279 0.687703 -4.274100 8.099930 0.000000 0.000000 0.000000 0.942821 1.418436 -0.961590 -0.569456 1.070599 0.205948 -1.418460 -1.377395 -3.289489 0.000000 0.000000 0.000000 -5.279659 -6.184078 -2.880910 -5.653326 22.144319 1.054189 -4.485142 -0.586648 -1.770602 0.000000 0.000000 0.000000 -3.905952 -0.552827 4.710757 -3.819081 1.622173 -2.126523 -3.949616 3.218167 -1.156982 0.000000 0.000000 0.000000 
-2788.414062 1309.546997 1148.586060 15.890920 0.840640 1.671955 1.714535 -0.334502 -2.654675 1.800762 -0.085435 0.695613 1.790191 -0.223028 -0.438875 0.464791 3.527415 -0.375450 0.000000 0.000000 0.000000 2.252309 0.534659 1.298905 -0.481121 2.080937 -5.394723 0.707591 -4.306516 7.320821 0.000000 0.000000 0.000000 0.871427 1.536984 -0.748286 -0.297688 1.217682 0.468350 -0.945228 -0.720177 -2.418655 0.000000 0.000000 0.000000 -5.449389 -8.047655 -3.308676 -5.752291 26.192810 0.776229 -4.432111 -0.613777 -1.731484 0.000000 0.000000 0.000000 -3.912421 -0.569596 4.501486 -3.831923 2.896162 -2.284372 -3.975317 2.638127 -1.245047 0.000000 0.000000 0.000000 
-2780.799805 1310.940674 1147.541992 15.740634 0.646912 1.755383 1.762677 0.006620 -2.844336 1.839589 -0.182025 0.740716 1.833723 -0.123814 -0.449431 0.384257 3.647907 -0.054494 0.000000 0.000000 0.000000 2.284388 0.729268 1.537534 -0.368587 2.258163 -5.058556 0.711298 -4.129176 6.447591 0.000000 0.000000 0.000000 0.828316 1.669105 -0.657510 0.002905 1.329257 0.820726 -0.417376 0.079413 -1.469277 0.000000 0.000000 0.000000 -5.319958 -9.146235 -3.542612 -5.537087 28.700207 1.140757 -3.918831 -1.437008 -1.619691 0.000000 0.000000 0.000000 -3.882829 -0.634846 4.375348 -3.802309 4.473466 -2.314634 -3.929659 1.911124 -1.324719 0.000000 0.000000 0.000000 
-2772.908936 1312.247803 1146.189941 15.577790 0.439883 1.711385 1.774154 0.319071 -2.817181 1.827812 -0.263170 0.707169 1.826572 -0.001920 -0.432455 0.303939 3.624452 0.213983 0.000000 0.000000 0.000000 2.158186 0.782481 1.758219 -0.273564 2.278917 -4.816905 0.698961 -3.869678 5.488795 0.000000 0.000000 0.000000 0.768222 1.818515 -0.618554 0.315397 1.433003 1.234831 0.147913 0.990771 -0.442305 0.000000 0.000000 0.000000 -5.019861 -9.817534 -3.582188 -5.172724 30.165697 1.828266 -3.176039 -2.809754 -1.492724 0.000000 0.000000 0.000000 -3.835896 -0.850755 4.346908 -3.745030 6.466652 -2.296064 -3.828828 1.038431 -1.402112 0.000000 0.000000 0.000000 
-2764.864258 1313.189819 1144.478027 15.478378 0.224082 1.614953 1.750627 0.597242 -2.735794 1.775347 -0.310530 0.697875 1.778424 0.100582 -0.393061 0.222627 3.526274 0.461806 0.000000 0.000000 0.000000 1.966353 0.780778 1.888860 -0.271187 2.259080 -4.765005 0.656136 -3.457312 5.118079 0.000000 0.000000 0.000000 0.685877 1.975349 -0.590377 0.599498 1.535424 1.660069 0.688191 1.852186 0.619303 0.000000 0.000000 0.000000 -4.747207 -10.093972 -3.408253 -4.901394 30.252442 2.387852 -2.684730 -4.092446 -1.455190 0.000000 0.000000 0.000000 -3.876149 -1.603452 4.399603 -3.746753 9.536505 -2.331841 -3.744178 -0.027954 -1.512217 0.000000 0.000000 0.000000 
-2756.614014 1313.542358 1142.485962 15.499206 -0.021228 1.336099 1.669529 0.832834 -2.351261 1.666925 -0.293188 0.597319 1.674214 0.166170 -0.327053 0.135660 3.336553 0.702002 0.000000 0.000000 0.000000 1.673614 0.673356 1.907057 -0.425743 2.170725 -5.056316 0.562116 -2.671147 5.795092 0.000000 0.000000 0.000000 0.558978 2.142581 -0.556465 0.856254 1.649442 2.074364 1.212096 2.651013 1.755610 0.000000 0.000000 0.000000 -4.534141 -9.824229 -2.751307 -4.794013 27.967327 2.632314 -2.702852 -4.917948 -1.563038 0.000000 0.000000 0.000000 -3.999779 -2.956934 4.702290 -3.817824 13.895552 -2.473218 -3.658893 -1.211929 -1.636548 0.000000 0.000000 0.000000 
-2748.208740 1313.529785 1140.133057 15.603577 -0.309623 0.919067 1.529658 1.101953 -1.730839 1.519833 -0.274286 0.423207 1.532596 0.213067 -0.237253 0.047390 3.074838 0.923124 0.000000 0.000000 0.000000 1.312300 0.497876 1.841156 -0.684060 2.031495 -5.539790 0.422612 -1.679766 7.034342 0.000000 0.000000 0.000000 0.409786 2.319334 -0.535455 1.089537 1.763990 2.499437 1.716178 3.418518 2.916433 0.000000 0.000000 0.000000 -4.333200 -9.034336 -1.762582 -4.744040 24.066379 2.638807 -2.988526 -5.223235 -1.715292 0.000000 0.000000 0.000000 -4.211421 -4.749370 5.181948 -4.010148 19.155403 -2.682048 -3.608132 -2.105514 -1.729415 0.000000 0.000000 0.000000 
-2739.925537 1313.546875 1137.125977 15.722331 -0.550308 0.588124 1.379431 1.356125 -1.282810 1.394815 -0.278914 0.364988 1.414122 0.247964 -0.140472 -0.032271 2.863106 1.127647 0.000000 0.000000 0.000000 1.066391 0.488354 1.684747 -0.896800 2.030363 -5.855274 0.313541 -1.028087 8.120244 0.000000 0.000000 0.000000 0.289467 2.483662 -0.523486 1.277969 1.854512 2.931606 2.132344 4.039010 3.926770 0.000000 0.000000 0.000000 -4.206239 -8.180111 -0.932823 -4.768087 21.137676 2.456546 -3.309495 -5.427539 -1.863509 0.000000 0.000000 0.000000 -4.619290 -7.165831 5.620805 -4.450752 25.191686 -3.040516 -3.775569 -2.147888 -1.779682 0.000000 0.000000 0.000000 
-2731.975830 1313.625488 1133.055054 15.872475 -0.608500 0.280162 1.250786 1.410103 -0.851017 1.314264 -0.238208 0.333479 1.337111 0.255079 -0.040920 -0.097341 2.760565 1.315197 0.000000 0.000000 0.000000 1.010422 0.804701 1.347130 -0.987359 2.285591 -5.822666 0.296051 -1.066678 8.918717 0.000000 0.000000 0.000000 0.186046 2.620739 -0.456186 1.409850 1.936719 3.302947 2.438161 4.400325 4.766915 0.000000 0.000000 0.000000 -4.236455 -7.512036 -0.204684 -5.004575 20.538226 1.996175 -3.747636 -6.218239 -2.110939 0.000000 0.000000 0.000000 -5.333149 -10.688245 6.227642 -5.305970 32.425854 -3.783628 -4.511615 -0.473551 -1.786615 0.000000 0.000000 0.000000 
